<?xml version="1.0" encoding="UTF-8" standalone="no"?>
<svg width="216px" height="314px" viewBox="0 0 216 314" version="1.1" xmlns="http://www.w3.org/2000/svg" xmlns:xlink="http://www.w3.org/1999/xlink">
    <!-- Generator: Sketch 50.2 (55047) - http://www.bohemiancoding.com/sketch -->
    <title>Group</title>
    <desc>Created with Sketch.</desc>
    <defs></defs>
    <g id="Page-1" stroke="none" stroke-width="1" fill="none" fill-rule="evenodd">
        <g id="Group" transform="translate(3.000000, -2.000000)">
            <path d="M53.2452381,311.5 L209,310" id="Line" stroke="#000000" stroke-width="7" stroke-linecap="round"></path>
            <ellipse id="Oval" stroke="#000000" fill="#000000" cx="138.835714" cy="266.5" rx="52.25" ry="45.5"></ellipse>
            <ellipse id="Oval" stroke="#000000" fill="#000000" transform="translate(103.521303, 269.070364) rotate(-13.000000) translate(-103.521303, -269.070364) " cx="103.521303" cy="269.070364" rx="81.0806533" ry="29.5"></ellipse>
            <path d="M75.6380952,250 C93.1274044,245.714097 84.3716861,243.43059 107.156776,235.79973 L75.6380952,250 Z" id="Path-10" stroke="#000000" stroke-width="6"></path>
            <ellipse id="Oval" stroke="#000000" fill="#000000" transform="translate(99.109832, 279.422922) rotate(-3.000000) translate(-99.109832, -279.422922) " cx="99.1098319" cy="279.422922" rx="27.8666667" ry="31"></ellipse>
            <path d="M76.6333333,255 C111.798413,228 129.380952,204.5 129.380952,184.5 C129.380952,172.68926 113.260615,160.193016 113.954762,143.5 C114.436065,131.925498 134.837462,110.290973 138.338095,102 C140.671851,96.4726843 141.83299,88.3060177 141.821514,77.5" id="Line-5" stroke="#000000" stroke-width="4" stroke-linecap="square"></path>
            <path d="M24.8809524,139.5 C8.1578873,161.96177 2.84995079,181.295103 8.95714286,197.5 C15.8371835,215.755582 30.4508547,237.773183 51.7711534,252 C60.2366005,257.648906 75.3247874,263.482239 97.0357143,269.5" id="Line-2" stroke="#000000" stroke-width="5" stroke-linecap="square"></path>
            <path d="M197.866053,259.982566 C189.038473,238.197344 183.444762,223.25512 181.084919,215.155894 C177.14367,201.629114 176.566125,193.362208 176.566125,184.230425 C176.566125,166.897092 177.389197,137.878239 179.035342,97.1738659" id="Line-3" stroke="#000000" stroke-width="6" stroke-linecap="square" transform="translate(187.216089, 178.578216) rotate(7.000000) translate(-187.216089, -178.578216) "></path>
            <path d="M151.34133,73.9743667 C170.226771,73.9743667 185.536445,58.3045224 185.536445,38.9747898 C185.536445,19.6450572 170.226771,3.97521291 151.34133,3.97521291 C137.777135,3.97521291 134.077443,17.8972045 129.477785,33.9748502 C127.673335,40.2821234 117.57941,45.7503361 121.705564,48.9746689 C125.831719,52.1990017 119.551199,61.1152715 120.33776,63.5199476 C121.871423,68.2086658 125.068049,70.79539 129.477785,72.222094 C135.102914,74.0420203 142.702012,73.9743667 151.34133,73.9743667 Z" id="Oval-3" stroke="#000000" stroke-width="4" fill="#000000" transform="translate(152.902587, 38.974952) rotate(-7.000000) translate(-152.902587, -38.974952) "></path>
            <path d="M60.0643562,310.493079 C21.3240466,312.884312 1.95389174,310.522258 1.95389174,303.406916 C1.95389174,299.019159 8.34628542,285.755475 23.2748045,274.257762 C29.4615365,269.492838 41.9833424,262.745349 60.8402222,254.015295" id="Line-4" stroke="#000000" stroke-width="7" fill="#000000" stroke-linecap="square" transform="translate(31.397057, 282.705295) rotate(2.000000) translate(-31.397057, -282.705295) "></path>
            <path d="M165.181069,10.4899998 C165.181069,10.4899998 188.559014,22.9346277 193.743235,55.9899998 C195.469871,66.9992883 195.469871,89.665955 193.743235,123.99" id="Line-6" stroke="#000000" stroke-width="7" fill="#000000" stroke-linecap="square" transform="translate(180.109640, 67.240000) rotate(2.000000) translate(-180.109640, -67.240000) "></path>
            <path d="M191.085714,126 L173.171429,125" id="Line-7" stroke="#000000" stroke-width="4" stroke-linecap="square"></path>
            <path d="M124.396009,122.50087 C167.390842,93.9956007 156.404733,109.963977 158.037404,74.7136648" id="Path-2" stroke="#000000" fill="#000000" transform="translate(141.286601, 98.607267) rotate(-29.000000) translate(-141.286601, -98.607267) "></path>
            <path d="M141.44885,75.3770702 C160.239266,75.3770702 163.504397,68.4384295 177.870517,57.168688 C179.037504,56.2532259 181.772565,54.8974614 182.200698,56.3405591 C183.776708,61.6527822 194.45618,115.102018 192.97359,122.348122 C190.220981,135.801403 173.035021,111.752037 172.232579,134" id="Path-3" stroke="#000000" fill="#000000"></path>
            <path d="M129.452972,187.809785 C128.680977,182.55789 129.192351,176.944812 127.136987,172.054101 C125.809811,168.896103 121.644027,167.762994 119.812641,164.870745 C110.431665,150.055672 116.158476,133.627226 125.262949,121.004006" id="Path-4" stroke="#000000" fill="#000000"></path>
            <path d="M150.101389,240.512568 C111.289533,164.692406 101.634051,201.047516 166.474423,131.404637" id="Path-5" stroke="#000000" stroke-width="20" fill="#000000" transform="translate(142.925867, 185.958603) scale(-1, 1) rotate(-1.000000) translate(-142.925867, -185.958603) "></path>
            <path d="M110.863188,233.558829 C137.239521,208.892824 127.830438,222.530569 138.819059,192.558829" id="Path-7" stroke="#000000" stroke-width="18" fill="#000000" transform="translate(124.841123, 213.058829) rotate(-7.000000) translate(-124.841123, -213.058829) "></path>
            <path d="M121.2671,213.777661 C115.415813,251.708417 141.362397,206.016329 157.49678,213.944412 C165.586218,217.919384 172.728757,228.178065 180.344745,235.294891" id="Path-8" stroke="#000000" stroke-width="8" fill="#000000"></path>
            <path d="M160.846435,92 C159.016926,109.031652 158.076954,128.91644 144.456369,142.282537 C126.849155,159.560775 134.081533,145.233838 128.998816,156.845845" id="Path-6" stroke="#000000" stroke-width="36" fill="#000000"></path>
            <path d="M163.948195,239.557079 C166.494139,176.036502 174.003205,141.431333 188.558869,102.171086" id="Path-9" stroke="#000000" stroke-width="21" transform="translate(176.253532, 170.864082) rotate(-8.000000) translate(-176.253532, -170.864082) "></path>
            <path d="M204.563745,309.742255 L166.204762,302" id="Line-8" stroke="#000000" stroke-width="6" stroke-linecap="square"></path>
            <path d="M156.74708,142.347149 C156.74708,156.136026 156.114968,146.668351 163.440611,170.00812" id="Path-11" stroke="#000000" stroke-width="12"></path>
            <path d="M134.108333,130.685873 C136.468088,115.289589 133.68314,125.919271 152.883943,103.639999" id="Path-12" stroke="#000000" stroke-width="21"></path>
            <path d="M140.849029,102.13377 C141.175275,100.568402 141.50152,99.0030339 141.827765,97.4376661" id="Path-13" stroke="#000000"></path>
            <path d="M25.8761905,136 C31.7978204,121.958967 35.7787728,110.958967 37.8190476,103 C39.8593224,95.0410332 41.5180526,84.0410332 42.7952381,70" id="Line-9" stroke="#000000" stroke-width="3" stroke-linecap="square"></path>
            <path d="M23.8857143,140 C39.1291773,133.06138 50.9061614,128.281025 59.2166667,125.658936 C67.5271719,123.036846 79.304156,120.385571 94.547619,117.705109" id="Line-10" stroke="#000000" stroke-width="3" stroke-linecap="square"></path>
            <path d="M43.7904762,70 L52.9401061,103.712652" id="Line-11" stroke="#000000" stroke-width="2" stroke-linecap="square"></path>
            <path d="M45.7655253,87 L75.1834681,104.577127" id="Line-11" stroke="#000000" stroke-width="2" stroke-linecap="square" transform="translate(60.474497, 95.788564) scale(-1, 1) translate(-60.474497, -95.788564) "></path>
            <path d="M44.7857143,100 L86.5857143,112" id="Line-11" stroke="#000000" stroke-linecap="square" transform="translate(65.685714, 106.000000) scale(-1, 1) translate(-65.685714, -106.000000) "></path>
            <path d="M60.7095238,117 L94.547619,110" id="Line-11" stroke="#000000" stroke-width="2" stroke-linecap="square" transform="translate(77.628571, 113.421611) scale(-1, 1) translate(-77.628571, -113.421611) "></path>
            <path d="M54.7380952,118 L89.5714286,110.578389" id="Line-11" stroke="#000000" stroke-width="2" stroke-linecap="square" transform="translate(72.154762, 114.000000) scale(-1, 1) translate(-72.154762, -114.000000) "></path>
            <path d="M75.6380952,87 L56.7285714,119" id="Line-11" stroke="#000000" stroke-width="2" stroke-linecap="square" transform="translate(66.183333, 103.000000) scale(-1, -1) translate(-66.183333, -103.000000) "></path>
            <path d="M69.7835047,101 L85.7073142,118" id="Line-11" stroke="#000000" stroke-width="2" stroke-linecap="square" transform="translate(77.686990, 109.422873) scale(-1, 1) translate(-77.686990, -109.422873) "></path>
            <path d="M67.6761905,102 L82.1655619,118.577127" id="Line-11" stroke="#000000" stroke-width="2" stroke-linecap="square" transform="translate(75.140476, 110.500000) scale(-1, 1) translate(-75.140476, -110.500000) "></path>
            <path d="M41.798697,75 L59.7142857,95.1100212" id="Line-11" stroke="#000000" stroke-width="2" stroke-linecap="square" transform="translate(50.756491, 85.055011) scale(-1, 1) translate(-50.756491, -85.055011) "></path>
            <path d="M54.7380952,75 L60.7095238,102" id="Line-11" stroke="#000000" stroke-width="2" stroke-linecap="square" transform="translate(57.723810, 88.500000) scale(-1, 1) translate(-57.723810, -88.500000) "></path>
            <path d="M52.747619,78 L58.7190476,105" id="Line-11" stroke="#000000" stroke-width="2" stroke-linecap="square" transform="translate(55.733333, 91.500000) scale(-1, 1) translate(-55.733333, -91.500000) "></path>
            <path d="M40.7788104,88.3445294 C40.7788104,96.9254422 41.4087093,107.149681 38.2595655,115.311886 C36.3476515,120.267338 31.896299,123.901019 29.6904552,128.731606 C28.5558973,131.216179 26.8866001,134.584223 28.43154,136.83432 C29.5310015,138.435609 30.5825514,133.454854 32.2111145,132.402771 C35.3891929,130.349671 38.8988851,128.721973 42.5427061,127.718234 C50.7594775,125.454814 59.392812,124.949669 67.6007764,122.654215 C69.0324102,122.253842 71.1804808,121.241505 71.0026764,119.759069 C70.5060015,115.618064 59.8512447,115.257327 58.9071891,114.584191 C57.7775237,113.77871 63.6694781,114.753104 62.9385467,113.570818 L57.7727509,110.026147 C56.9305648,108.663907 57.1362833,106.685764 57.7727509,105.215116 C58.5295456,103.466437 60.7812842,102.726716 61.6626574,101.037976 C62.1674003,100.070872 62.0159501,98.7946355 61.6626574,97.761927 C61.4579468,97.1635385 60.751376,96.428076 60.1519591,96.6220609 C55.3314454,98.1820883 49.6353164,113.2787 45.803155,107.76347 C39.7344697,99.0294456 63.2659286,90.4261354 53.4896102,85.4806513 C51.266974,84.3563005 49.4836552,93.1538976 48.3549337,90.9255729 L46.1030315,91.3050545 C42.4978876,84.1877708 43.6521515,74.7675891 39.2525525,92.9821642" id="Path-14" stroke="#000000" fill="#000000"></path>
            <path d="M32.8428571,123.296252 C35.2291012,114.725845 40.6563595,104.000179 41.6312168,95" id="Path-16" stroke="#000000" stroke-width="3"></path>
            <path d="M41.8,118.296252 C44.186244,109.725845 49.6135023,99.0001788 50.5883596,90" id="Path-16" stroke="#000000" stroke-width="10"></path>
            <path d="M58.6612107,130.75866 C61.0474548,122.188252 66.4747131,111.462586 67.4495704,102.462407" id="Path-16" stroke="#000000" stroke-width="6" transform="translate(63.055391, 116.610534) rotate(33.000000) translate(-63.055391, -116.610534) "></path>
            <path d="M41.6045216,97.0711852 C41.6045216,103.293841 45.041668,121.025628 32.9420535,122" id="Path-17" stroke="#000000" fill="#000000"></path>
            <path d="M85.2956502,118.181187 C67.6011111,114.080965 33.2656464,108.426067 26.8714286,137.148865" id="Path-18" stroke="#000000"></path>
            <path d="M26.7032751,136.687873 C31.005745,131.599453 50.3206597,111.346176 58.7885769,122.680499 C61.24249,125.965066 52.1549315,127.568553 48.4547857,129.313668 C41.8991324,132.405537 34.9294104,134.519761 28.1667227,137.122808 L26.7032751,136.687873 Z" id="Path-15" stroke="#000000" fill="#000000"></path>
            <path d="M64.6904762,117.275177 C67.5887709,116.519071 70.3935909,114.880997 73.3853603,115.006861 C104.675208,116.323224 79.2576142,118.850442 75.0098065,119.809878 C72.4633571,120.385035 70.40939,123.534158 67.8535669,123.002633 C65.9258546,122.601734 66.0216329,119.500978 65.105666,117.750151 L64.6904762,117.275177 Z" id="Path-19" stroke="#000000" fill="#000000" transform="translate(76.731270, 119.031402) rotate(-2.000000) translate(-76.731270, -119.031402) "></path>
            <path d="M60.7257008,110.989552 C67.5968991,108.109786 74.3275255,104.864768 81.3392958,102.350256 C87.0302569,100.309403 70.5719571,117.711963 63.3341339,114.451922 C62.2074387,113.944438 61.5784681,112.707014 60.7006352,111.83456 L60.7257008,110.989552 Z" id="Path-20" stroke="#000000" fill="#000000"></path>
            <path d="M52.3770833,98.9171938 C59.2490991,96.0374285 65.9805262,92.7924102 72.9931307,90.2778978 C78.6847689,88.2370448 62.224511,105.639605 54.9858268,102.379564 C53.8589974,101.872081 53.2299521,100.634656 52.3520147,99.7622019 L52.3770833,98.9171938 Z" id="Path-20" stroke="#000000" fill="#000000" transform="translate(63.259824, 96.449306) rotate(-6.000000) translate(-63.259824, -96.449306) "></path>
            <path d="M53.4538258,107.130744 C58.7834001,103.364946 64.0039412,99.1215166 69.4425486,95.8333513 C73.8566841,93.1645786 61.0909732,115.921474 55.4770301,111.658399 C54.6031205,110.994776 54.115266,109.376626 53.4343839,108.23574 L53.4538258,107.130744 Z" id="Path-20" stroke="#000000" fill="#000000" transform="translate(61.893908, 103.903549) rotate(-5.000000) translate(-61.893908, -103.903549) "></path>
            <path d="M43.4338557,109.085299 C48.424233,105.677775 53.3125165,101.83806 58.4049877,98.8627261 C62.5381886,96.4478571 50.5849423,117.03969 45.3282946,113.182199 C44.5100044,112.581712 44.053199,111.117511 43.4156512,110.085167 L43.4338557,109.085299 Z" id="Path-20" stroke="#000000" fill="#000000" transform="translate(51.336775, 106.165135) rotate(-5.000000) translate(-51.336775, -106.165135) "></path>
            <path d="M39.1629817,110.989552 C52.8343453,108.109786 66.2260183,104.864768 80.1770726,102.350256 C91.500163,100.309403 58.7537058,117.711963 44.3528825,114.451922 C42.1111394,113.944438 40.8597005,112.707014 39.1131095,111.83456 L39.1629817,110.989552 Z" id="Path-20" stroke="#000000" fill="#000000"></path>
            <path d="M32.6515301,88.1195391 C39.5227284,85.2397738 46.2533547,81.9947555 53.265125,79.4802431 C58.9560861,77.4393901 42.4977864,94.8419503 35.2599632,91.5819091 C34.1332679,91.0744259 33.5042974,89.8370012 32.6264645,88.9645472 L32.6515301,88.1195391 Z" id="Path-20" stroke="#000000" fill="#000000" transform="translate(43.532976, 85.651651) rotate(-62.000000) translate(-43.532976, -85.651651) "></path>
            <path d="M45.1874974,88.9110451 C50.1778748,85.5035209 55.0661582,81.6638057 60.1586294,78.6884723 C64.2918303,76.2736033 52.338584,96.8654362 47.0819363,93.0079448 C46.2636461,92.407458 45.8068407,90.9432572 45.1692929,89.9109133 L45.1874974,88.9110451 Z" id="Path-20" stroke="#000000" fill="#000000" transform="translate(53.090416, 85.990881) rotate(-12.000000) translate(-53.090416, -85.990881) "></path>
            <polygon id="Triangle" fill="#000000" transform="translate(42.625570, 66.111424) rotate(-7.000000) translate(-42.625570, -66.111424) " points="42.6255698 60.2152436 44.7422514 72.007605 40.5088883 72.007605"></polygon>
            <polygon id="Triangle" fill="#000000" transform="translate(61.278612, 73.219087) rotate(27.000000) translate(-61.278612, -73.219087) " points="61.2786118 67.3229059 63.3952933 79.1152673 59.1619303 79.1152673"></polygon>
            <polygon id="Triangle" fill="#000000" transform="translate(76.260845, 85.718763) rotate(44.000000) translate(-76.260845, -85.718763) " points="76.2608453 79.8225825 78.3775269 91.614944 74.1441638 91.614944"></polygon>
            <polygon id="Triangle" fill="#000000" transform="translate(86.574612, 100.246955) rotate(56.000000) translate(-86.574612, -100.246955) " points="86.5746124 94.3507748 88.6912939 106.143136 84.4579309 106.143136"></polygon>
            <polygon id="Triangle" fill="#000000" transform="translate(97.500742, 117.706587) rotate(90.000000) translate(-97.500742, -117.706587) " points="97.5007422 109.739334 100.035644 125.67384 94.9658399 125.67384"></polygon>
            <path d="M84.7791695,293.569941 C76.0669202,292.955818 67.376055,291.705089 58.6424216,291.72757 C28.1418632,291.806083 44.061383,305.224523 62.4022752,308.866483 C78.4848801,312.060014 102.116371,314.952453 117.724217,310.353 C119.911015,309.708576 119.275442,305.704511 118.549903,303.533848 C117.792438,301.267672 115.944793,299.043199 113.689479,298.281901 C-51.1544735,242.63763 164.264988,320.962803 87.2778455,292.752719 L84.7791695,293.569941 Z" id="Path-21" stroke="#000000" fill="#000000"></path>
            <path d="M174.751092,306.838081 C170.251613,305.834994 165.86108,303.762512 161.252655,303.828821 C156.485531,303.897414 159.059125,311.751847 164.982202,311.834816 C167.86986,311.875266 178.667884,311.202314 173.86105,306.214047" id="Path-22" stroke="#000000" fill="#000000"></path>
        </g>
    </g>
</svg>